Before.The.Devil.Knows.Youre.Dead.2007.LIMITED.720p.Bluray.x264.anoXmous

Format                           : MPEG-4
Format profile                   : Base Media
Codec ID                         : isom
File size                        : 699 MiB
Duration                         : 1h 56mn
Overall bit rate mode            : Variable
Overall bit rate                 : 838 Kbps


Video
ID                               : 1
Format                           : AVC
Format/Info                      : Advanced Video Codec
Format profile                   : High@L4.1
Format settings, CABAC           : Yes
Format settings, ReFrames        : 4 frames
Codec ID                         : avc1
Codec ID/Info                    : Advanced Video Coding
Duration                         : 1h 56mn
Bit rate                         : 768 Kbps
Maximum bit rate                 : 6 688 Kbps
Width                            : 1 280 pixels
Height                           : 688 pixels
Display aspect ratio             : 1.860
Frame rate mode                  : Constant
Frame rate                       : 23.976 fps
Color space                      : YUV
Chroma subsampling               : 4:2:0
Bit depth                        : 8 bits
Scan type                        : Progressive
Bits/(Pixel*Frame)               : 0.036
Stream size                      : 641 MiB (92%)
Writing library                  : x264 core 120 r2120 0c7dab9


Audio
ID                               : 2
Format                           : AAC
Format/Info                      : Advanced Audio Codec
Format profile                   : LC
Codec ID                         : 40
Duration                         : 1h 56mn
Bit rate mode                    : Variable
Bit rate                         : 66.2 Kbps
Maximum bit rate                 : 91.1 Kbps
Channel(s)                       : 2 channels
Channel positions                : Front: L R
Sampling rate                    : 48.0 KHz 
Compression mode                 : Lossy
Stream size                      : 56.2 MiB (8%)

                     SUB         :

Before.The.Devil.Knows.Youre.Dead.2007.LIMITED.720p.Bluray.x264.anoXmous_eng.srt
Before.The.Devil.Knows.Youre.Dead.2007.LIMITED.720p.Bluray.x264.anoXmous_swe.srt

         http://www.imdb.com/title/tt0292963/

         This work very fine with PSP and XBOX					 
